# xmcd
#
# Track frame offsets:
#	150
#	11730
#	21132
#	31291
#	39638
#	51213
#	63754
#	73759
#	83643
#	93653
#	103196
#	114258
#
# Disc length: 1655 seconds
#
# Revision: 1
# Processed by: cddbd v1.5.1PL0 Copyright (c) Steve Scherf et al.
# Submitted via: audiograbber 1.82.01
#
DISCID=9706750c
DTITLE=Jones George - The Crown Prince Of Country
DYEAR=1960
DGENRE=Country
TTITLE0=One Is A Lonely Number
TTITLE1=Maybe Little Baby
TTITLE2=Run Boy
TTITLE3=One Woman Man
TTITLE4=Settle Down
TTITLE5=Heartbroken Me
TTITLE6=Rain Rain
TTITLE7=Frozen Heart
TTITLE8=I've Got Five Dollars And It's Saturday Night
TTITLE9=Cause I Love You
TTITLE10=You're In My Heart
TTITLE11=You All Goodnight
EXTD=
EXTT0=
EXTT1=
EXTT2=
EXTT3=
EXTT4=
EXTT5=
EXTT6=
EXTT7=
EXTT8=
EXTT9=
EXTT10=
EXTT11=
PLAYORDER=
